<svg width="1200" height="630" viewBox="0 0 1200 630" fill="none" xmlns="http://www.w3.org/2000/svg">
  <defs>
    <linearGradient id="bg" x1="0" y1="0" x2="1200" y2="630" gradientUnits="userSpaceOnUse">
      <stop stop-color="#081124"/>
      <stop offset="0.55" stop-color="#0B1D3F"/>
      <stop offset="1" stop-color="#111827"/>
    </linearGradient>
    <linearGradient id="line" x1="250" y1="0" x2="950" y2="630" gradientUnits="userSpaceOnUse">
      <stop stop-color="#38BDF8" stop-opacity="0.35"/>
      <stop offset="1" stop-color="#6366F1" stop-opacity="0.35"/>
    </linearGradient>
    <linearGradient id="chip" x1="0" y1="0" x2="1" y2="1">
      <stop stop-color="#38BDF8"/>
      <stop offset="1" stop-color="#6366F1"/>
    </linearGradient>
  </defs>

  <rect width="1200" height="630" fill="url(#bg)"/>
  <circle cx="980" cy="130" r="170" fill="#38BDF8" fill-opacity="0.12"/>
  <circle cx="200" cy="560" r="220" fill="#6366F1" fill-opacity="0.14"/>

  <g opacity="0.25">
    <path d="M0 520L360 320L700 430L1200 180" stroke="url(#line)" stroke-width="2"/>
    <path d="M0 560L280 380L640 500L1200 250" stroke="url(#line)" stroke-width="2"/>
  </g>

  <rect x="88" y="110" width="318" height="42" rx="21" fill="#38BDF8" fill-opacity="0.15" stroke="#38BDF8" stroke-opacity="0.4"/>
  <text x="109" y="137" fill="#CBEAFE" font-family="Inter, Arial, sans-serif" font-size="18" font-weight="700" letter-spacing="2">
    BOOKING SYSTEMS • WEB APPS
  </text>

  <text x="88" y="248" fill="white" font-family="Inter, Arial, sans-serif" font-size="66" font-weight="800">
    Petar Arsic
  </text>
  <text x="88" y="320" fill="#D1D5DB" font-family="Inter, Arial, sans-serif" font-size="36" font-weight="600">
    Full-Stack Developer
  </text>
  <text x="88" y="376" fill="#CBD5E1" font-family="Inter, Arial, sans-serif" font-size="28" font-weight="500">
    Premium, conversion-focused digital products
  </text>

  <rect x="88" y="438" width="186" height="52" rx="12" fill="url(#chip)"/>
  <text x="126" y="471" fill="white" font-family="Inter, Arial, sans-serif" font-size="22" font-weight="700">
    Book a Call
  </text>

  <rect x="296" y="438" width="220" height="52" rx="12" fill="#FFFFFF" fill-opacity="0.08" stroke="#FFFFFF" stroke-opacity="0.25"/>
  <text x="332" y="471" fill="#F8FAFC" font-family="Inter, Arial, sans-serif" font-size="22" font-weight="700">
    Case Studies
  </text>

  <text x="88" y="548" fill="#94A3B8" font-family="Inter, Arial, sans-serif" font-size="22" font-weight="600">
    petararsic.rs
  </text>
</svg>
